PathFileType	4	(X/Y/Z)	 0.11m3min.trc
DataRate	CameraRate	NumFrames	NumMarkers	Units	OrigDataRate	OrigDataStartFrame	OrigNumFrames
200	200	9	43	m	200	126	1000
Frame#	Time	C7			LSH			RSH			MAN			RASI			LASI			HIPR			HIPL			RPSI			LPSI			COX			RTHI1			RTHI2			RTHI3			RTHI4			RLKN			RMKN			RSHA1			RSHA2			RSHA3			RSHA4			RLMAL			RMMAL			RHEEL			RMET5			RMET1			RTOE			LTHI1			LTHI2			LTHI3			LTHI4			LLKN			LMKN			LSHA1			LSHA2			LSHA3			LSHA4			LLMAL			LMMAL			LHEEL			LMET5			LMET1			LTOE			
		X1	Y1	Z1	X2	Y2	Z2	X3	Y3	Z3	X4	Y4	Z4	X5	Y5	Z5	X6	Y6	Z6	X7	Y7	Z7	X8	Y8	Z8	X9	Y9	Z9	X10	Y10	Z10	X11	Y11	Z11	X12	Y12	Z12	X13	Y13	Z13	X14	Y14	Z14	X15	Y15	Z15	X16	Y16	Z16	X17	Y17	Z17	X18	Y18	Z18	X19	Y19	Z19	X20	Y20	Z20	X21	Y21	Z21	X22	Y22	Z22	X23	Y23	Z23	X24	Y24	Z24	X25	Y25	Z25	X26	Y26	Z26	X27	Y27	Z27	X28	Y28	Z28	X29	Y29	Z29	X30	Y30	Z30	X31	Y31	Z31	X32	Y32	Z32	X33	Y33	Z33	X34	Y34	Z34	X35	Y35	Z35	X36	Y36	Z36	X37	Y37	Z37	X38	Y38	Z38	X39	Y39	Z39	X40	Y40	Z40	X41	Y41	Z41	X42	Y42	Z42	X43	Y43	Z43	
126	0.6300	-0.313059	1.568609	-0.538437	-0.265350	1.531371	-0.750414	-0.256555	1.533197	-0.335473	-0.183225	1.497300	-0.538431	-0.241100	1.046006	-0.419419	-0.235467	1.041165	-0.658562	-0.320038	1.121676	-0.377040	-0.313776	1.128827	-0.702692	-0.414238	1.095003	-0.496767	-0.407733	1.096079	-0.589448	-0.413523	1.095778	-0.542855	-0.308063	0.830509	-0.335015	-0.291552	0.773409	-0.327452	-0.228510	0.787124	-0.330623	-0.237027	0.847591	-0.339425	-0.237100	0.519262	-0.337406	-0.243218	0.502230	-0.456462	-0.324681	0.359405	-0.300704	-0.344792	0.322021	-0.309503	-0.290551	0.303484	-0.331150	-0.276810	0.340441	-0.324985	-0.396635	0.145139	-0.319447	-0.369011	0.135066	-0.407452	-0.449970	0.128636	-0.363102	-0.301195	0.038139	-0.301179	-0.261687	0.045508	-0.375595	-0.234174	0.033111	-0.373470	-0.300661	0.775414	-0.735696	-0.282458	0.716634	-0.737584	-0.218865	0.730129	-0.739870	-0.229533	0.789151	-0.739376	-0.249277	0.511913	-0.718182	-0.229139	0.504660	-0.604386	-0.358149	0.345252	-0.730052	-0.376195	0.309428	-0.720862	-0.319140	0.288352	-0.712670	-0.306691	0.329718	-0.723459	-0.414759	0.132544	-0.711774	-0.393601	0.136952	-0.620663	-0.477244	0.125516	-0.667192	-0.325708	0.034495	-0.720628	-0.288539	0.043454	-0.644796	-0.263093	0.030489	-0.642929	
127	0.6350	-0.313325	1.561945	-0.538497	-0.265546	1.524383	-0.750535	-0.256770	1.526451	-0.335328	-0.183423	1.490555	-0.538390	-0.241450	1.039672	-0.419055	-0.235575	1.034852	-0.658251	-0.320604	1.114889	-0.376643	-0.313800	1.121964	-0.702583	-0.414685	1.088328	-0.496615	-0.408093	1.089444	-0.589180	-0.413943	1.089121	-0.542719	-0.307488	0.823900	-0.334997	-0.290613	0.766904	-0.327482	-0.227664	0.781003	-0.330768	-0.236563	0.841414	-0.339539	-0.234721	0.512873	-0.337307	-0.240526	0.496131	-0.456246	-0.324543	0.354164	-0.301213	-0.345171	0.317118	-0.310053	-0.291162	0.297744	-0.331653	-0.276852	0.334509	-0.325426	-0.399953	0.140992	-0.320390	-0.372229	0.130931	-0.408368	-0.453081	0.123871	-0.364152	-0.302856	0.035881	-0.300421	-0.263195	0.044045	-0.375403	-0.235269	0.032023	-0.373715	-0.299471	0.768974	-0.735362	-0.280910	0.710171	-0.737363	-0.217369	0.724165	-0.739815	-0.228445	0.783154	-0.739020	-0.246935	0.505566	-0.718222	-0.226635	0.498374	-0.604509	-0.358532	0.340140	-0.730913	-0.377171	0.304485	-0.721203	-0.320295	0.283118	-0.712345	-0.307342	0.324092	-0.723706	-0.417609	0.128597	-0.711482	-0.396983	0.133234	-0.620253	-0.480325	0.120877	-0.667403	-0.326898	0.032578	-0.721536	-0.289629	0.042263	-0.644673	-0.263948	0.029752	-0.642206	
128	0.6400	-0.313649	1.555074	-0.538644	-0.265754	1.517232	-0.750719	-0.256974	1.519554	-0.335202	-0.183601	1.483650	-0.538394	-0.241779	1.033182	-0.418667	-0.235672	1.028413	-0.657908	-0.321176	1.107885	-0.376199	-0.313920	1.114891	-0.702538	-0.415153	1.081457	-0.496423	-0.408411	1.082600	-0.589138	-0.414405	1.082259	-0.542541	-0.306894	0.817148	-0.334921	-0.289671	0.760256	-0.327436	-0.226817	0.774710	-0.330846	-0.236077	0.835065	-0.339605	-0.232359	0.506329	-0.337199	-0.237797	0.489845	-0.455965	-0.324396	0.348830	-0.301766	-0.345526	0.312120	-0.310679	-0.291717	0.291922	-0.332168	-0.276879	0.328502	-0.325882	-0.403029	0.136759	-0.321231	-0.375178	0.126753	-0.409289	-0.456051	0.118880	-0.365165	-0.303943	0.034188	-0.299516	-0.264074	0.043252	-0.374617	-0.235810	0.031532	-0.373644	-0.298419	0.762163	-0.735144	-0.279601	0.703601	-0.737322	-0.216053	0.717864	-0.739424	-0.227482	0.776843	-0.738568	-0.244461	0.499203	-0.718183	-0.224171	0.491982	-0.604731	-0.358865	0.334840	-0.731162	-0.377732	0.299587	-0.721152	-0.321255	0.277369	-0.712230	-0.307848	0.318342	-0.723842	-0.420171	0.124600	-0.711328	-0.400252	0.129433	-0.619907	-0.483298	0.116078	-0.667799	-0.327765	0.031046	-0.722618	-0.290338	0.041498	-0.644840	-0.264378	0.029402	-0.641737	
129	0.6450	-0.314027	1.548038	-0.538882	-0.265961	1.509957	-0.750974	-0.257150	1.512555	-0.335109	-0.183731	1.476622	-0.538442	-0.242100	1.026566	-0.418266	-0.235776	1.021887	-0.657539	-0.321746	1.100692	-0.375705	-0.314140	1.107619	-0.702557	-0.415655	1.074408	-0.496192	-0.408806	1.075347	-0.588797	-0.414925	1.075216	-0.542334	-0.306287	0.810306	-0.334762	-0.288733	0.753502	-0.327297	-0.225973	0.768291	-0.330810	-0.235569	0.828589	-0.339572	-0.230031	0.499703	-0.337059	-0.235032	0.483426	-0.455617	-0.324205	0.343471	-0.302358	-0.345791	0.307076	-0.311339	-0.292168	0.286098	-0.332631	-0.276849	0.322508	-0.326339	-0.405727	0.132498	-0.321959	-0.377718	0.122592	-0.410224	-0.458796	0.113868	-0.366085	-0.304797	0.032935	-0.298429	-0.264602	0.042873	-0.373766	-0.235925	0.031357	-0.373419	-0.297502	0.755285	-0.735088	-0.278279	0.696821	-0.737408	-0.214878	0.711446	-0.739192	-0.226666	0.770398	-0.738121	-0.242224	0.492643	-0.718348	-0.221781	0.485546	-0.604997	-0.358595	0.329294	-0.730780	-0.377983	0.294320	-0.721196	-0.321754	0.271603	-0.712046	-0.307835	0.312462	-0.723457	-0.422395	0.120613	-0.711305	-0.403286	0.125586	-0.619624	-0.486097	0.111322	-0.668442	-0.328421	0.029821	-0.723753	-0.290825	0.041033	-0.645022	-0.264560	0.029222	-0.641462	
130	0.6500	-0.314455	1.540910	-0.539201	-0.266154	1.502610	-0.751307	-0.257334	1.505490	-0.335030	-0.183796	1.469512	-0.538530	-0.242410	1.019875	-0.417856	-0.235909	1.015319	-0.657158	-0.322310	1.093314	-0.375158	-0.314429	1.100146	-0.702639	-0.416210	1.067204	-0.495927	-0.409272	1.068262	-0.588675	-0.415522	1.068024	-0.542104	-0.305665	0.803424	-0.334512	-0.287812	0.746714	-0.327062	-0.225137	0.761806	-0.330628	-0.235041	0.822052	-0.339389	-0.227759	0.493096	-0.336859	-0.232219	0.476935	-0.455209	-0.323907	0.338132	-0.302915	-0.345911	0.302073	-0.311977	-0.292458	0.280376	-0.333058	-0.276746	0.316615	-0.326759	-0.407987	0.128309	-0.322619	-0.379868	0.118481	-0.411175	-0.461259	0.109035	-0.366899	-0.305493	0.032028	-0.297448	-0.264886	0.042730	-0.373085	-0.235792	0.031224	-0.373101	-0.296747	0.748216	-0.735059	-0.277109	0.689896	-0.737433	-0.213790	0.704922	-0.739083	-0.225954	0.763728	-0.737862	-0.240015	0.485891	-0.718458	-0.219521	0.478916	-0.605347	-0.357764	0.323874	-0.730900	-0.377659	0.289212	-0.721327	-0.321771	0.265748	-0.711716	-0.307333	0.306379	-0.723143	-0.424290	0.116699	-0.711375	-0.405995	0.121770	-0.619419	-0.488677	0.106727	-0.669291	-0.328947	0.028745	-0.724820	-0.291234	0.040668	-0.645180	-0.264699	0.029063	-0.641280	
131	0.6550	-0.314923	1.533758	-0.539589	-0.266320	1.495236	-0.751719	-0.257508	1.498424	-0.334958	-0.183774	1.462362	-0.538651	-0.242721	1.013155	-0.417443	-0.236085	1.008757	-0.656775	-0.322872	1.085769	-0.374554	-0.314739	1.092459	-0.702742	-0.416831	1.059871	-0.495634	-0.409892	1.060951	-0.588470	-0.416214	1.060707	-0.541852	-0.305035	0.796588	-0.334188	-0.286924	0.739959	-0.326761	-0.224325	0.755337	-0.330285	-0.234497	0.815534	-0.339028	-0.225538	0.486641	-0.336589	-0.229335	0.470483	-0.454752	-0.323463	0.332910	-0.303415	-0.345857	0.297185	-0.312598	-0.292544	0.274853	-0.333460	-0.276519	0.310918	-0.327125	-0.409826	0.124244	-0.323292	-0.381627	0.114501	-0.412174	-0.463406	0.104492	-0.367628	-0.306117	0.031277	-0.296703	-0.265047	0.042610	-0.372613	-0.235667	0.031124	-0.372843	-0.296033	0.741193	-0.735063	-0.276041	0.682875	-0.737595	-0.212785	0.698413	-0.739204	-0.225371	0.757024	-0.737646	-0.237848	0.479252	-0.718575	-0.217430	0.472031	-0.605681	-0.356796	0.318507	-0.731392	-0.377249	0.284174	-0.721794	-0.321736	0.260125	-0.711415	-0.306581	0.300387	-0.722932	-0.425894	0.112878	-0.711492	-0.408404	0.118069	-0.619260	-0.491026	0.102336	-0.670205	-0.329465	0.027723	-0.725738	-0.291683	0.040348	-0.645226	-0.264886	0.028924	-0.641073	
132	0.6600	-0.315421	1.526669	-0.540028	-0.266446	1.487903	-0.752208	-0.257673	1.491425	-0.334893	-0.183646	1.455233	-0.538791	-0.243048	1.006461	-0.417025	-0.236312	1.002247	-0.656404	-0.323435	1.078077	-0.373891	-0.315097	1.084640	-0.702900	-0.417525	1.052442	-0.495321	-0.410583	1.053553	-0.588307	-0.417006	1.053291	-0.541576	-0.304419	0.789892	-0.333826	-0.286085	0.733338	-0.326432	-0.223549	0.748983	-0.329795	-0.233957	0.809148	-0.338491	-0.223339	0.480446	-0.336255	-0.226366	0.464191	-0.454262	-0.322836	0.327877	-0.303888	-0.345578	0.292458	-0.313199	-0.292403	0.269586	-0.333863	-0.276087	0.305453	-0.327467	-0.411291	0.120397	-0.323955	-0.383044	0.110719	-0.413251	-0.465236	0.100248	-0.368381	-0.306769	0.030638	-0.296113	-0.265208	0.042473	-0.372478	-0.235556	0.031048	-0.372690	-0.295240	0.734020	-0.734926	-0.274887	0.675902	-0.737506	-0.211808	0.691797	-0.739325	-0.224718	0.750440	-0.737829	-0.235576	0.472651	-0.718670	-0.215374	0.465213	-0.606131	-0.355622	0.313449	-0.731902	-0.376617	0.279487	-0.722484	-0.321445	0.254972	-0.711131	-0.305763	0.294982	-0.722747	-0.427293	0.109185	-0.711591	-0.410583	0.114543	-0.619104	-0.493170	0.098134	-0.671074	-0.329988	0.026821	-0.726577	-0.292152	0.040091	-0.645104	-0.265066	0.028804	-0.640814	
133	0.6650	-0.315939	1.519751	-0.540498	-0.266525	1.480693	-0.752760	-0.257843	1.484570	-0.334835	-0.183418	1.448161	-0.538946	-0.243404	0.999854	-0.416601	-0.236587	0.995847	-0.656060	-0.323995	1.070282	-0.373169	-0.315451	1.076686	-0.703073	-0.418289	1.044960	-0.494993	-0.411323	1.046164	-0.588017	-0.417894	1.045812	-0.541284	-0.303845	0.783433	-0.333483	-0.285306	0.726942	-0.326120	-0.222825	0.742863	-0.329198	-0.233450	0.802997	-0.337812	-0.221122	0.474586	-0.335876	-0.223306	0.458197	-0.453752	-0.321977	0.323035	-0.304336	-0.345033	0.287938	-0.313757	-0.292025	0.264628	-0.334301	-0.275418	0.300250	-0.327822	-0.412491	0.116787	-0.324678	-0.384212	0.107148	-0.414389	-0.466796	0.096246	-0.369229	-0.307398	0.030160	-0.295639	-0.265346	0.042367	-0.372611	-0.235378	0.030994	-0.372587	-0.294494	0.726839	-0.734755	-0.273775	0.668999	-0.737418	-0.210757	0.685263	-0.739412	-0.224033	0.743819	-0.737942	-0.233128	0.466349	-0.718767	-0.213381	0.458538	-0.606704	-0.354278	0.308741	-0.732688	-0.375586	0.275225	-0.723305	-0.320976	0.250090	-0.710984	-0.304738	0.289831	-0.722759	-0.428559	0.105608	-0.711621	-0.412567	0.111214	-0.618931	-0.495136	0.094066	-0.671833	-0.330431	0.026051	-0.727352	-0.292576	0.039891	-0.644930	-0.265223	0.028705	-0.640577	
134	0.6700	-0.316472	1.513102	-0.540977	-0.266553	1.473694	-0.753347	-0.258032	1.477937	-0.334776	-0.183093	1.441204	-0.539110	-0.243803	0.993403	-0.416166	-0.236910	0.989616	-0.655767	-0.324569	1.062420	-0.372390	-0.315820	1.068649	-0.703258	-0.419125	1.037479	-0.494656	-0.412206	1.038726	-0.587762	-0.418878	1.038323	-0.540977	-0.303326	0.777307	-0.333197	-0.284590	0.720883	-0.325854	-0.222162	0.737089	-0.328540	-0.232999	0.797195	-0.337042	-0.218834	0.469144	-0.335491	-0.220153	0.452632	-0.453254	-0.320841	0.318443	-0.304705	-0.344229	0.283681	-0.314283	-0.291405	0.259979	-0.334829	-0.274487	0.295331	-0.328183	-0.413464	0.113440	-0.325457	-0.385174	0.103835	-0.415567	-0.468117	0.092473	-0.370166	-0.307894	0.029823	-0.295332	-0.265386	0.042303	-0.372767	-0.235153	0.030962	-0.372482	-0.293704	0.719861	-0.734554	-0.272605	0.662120	-0.737407	-0.209729	0.678920	-0.739531	-0.223455	0.737411	-0.737972	-0.230759	0.460595	-0.718850	-0.211374	0.452126	-0.607375	-0.352872	0.304396	-0.733233	-0.374745	0.270861	-0.723878	-0.320376	0.245379	-0.710986	-0.303635	0.284944	-0.722772	-0.429701	0.102151	-0.711548	-0.414392	0.108087	-0.618699	-0.496936	0.090086	-0.672380	-0.330792	0.025395	-0.728043	-0.292943	0.039710	-0.644816	-0.265352	0.028617	-0.640372	
